# xmcd
#
# Track frame offsets: 
#        150
#        14932
#        25526
#        36492
#        49380
#        58761
#        68977
#        82494
#        91132
#        101420
#        111986
#        122362
#        132121
#        142476
#        154241
#        162856
#        173050
#        183736
#
# Disc length: 2590 seconds
#
# Revision: 0
# Processed by: cddbd v1.5.2PL0 Copyright (c) Steve Scherf et al.
# Submitted via: ExactAudioCopyFreeDBPlugin 1.0
#
DISCID=0b0a1c12
DTITLE=Waylon Jennings - 18 Greatest
DYEAR=2007
DGENRE=Country
TTITLE0=There Ain't No Good Chain Gang (with Johnny Cash)
TTITLE1=Only Daddy That'll Walk The Line (Live)
TTITLE2=(That's What You Get) For Lovin' Me
TTITLE3=The Eagle
TTITLE4=Heartaches By The Number
TTITLE5=Foolin' Around
TTITLE6=Love Of The Common People (Live)
TTITLE7=Love's Gonna Live Here
TTITLE8=White Lightning
TTITLE9=Dream Baby
TTITLE10=Money (That's What I Want)
TTITLE11=When Sin Stops
TTITLE12=Lorena
TTITLE13=Crying
TTITLE14=Abilene
TTITLE15=Nine Pound Hammer (Live)
TTITLE16=I've Got A Tiger By The Tail
TTITLE17=Burning Memories
EXTD=
EXTT0=
EXTT1=
EXTT2=
EXTT3=
EXTT4=
EXTT5=
EXTT6=
EXTT7=
EXTT8=
EXTT9=
EXTT10=
EXTT11=
EXTT12=
EXTT13=
EXTT14=
EXTT15=
EXTT16=
EXTT17=
PLAYORDER=
